<svg width="135" height="139" viewBox="0 0 135 139" fill="none" xmlns="http://www.w3.org/2000/svg">
<path fill-rule="evenodd" clip-rule="evenodd" d="M55.2719 9.06534C48.6406 13.618 42.953 17.5113 42.6328 17.7166C42.3125 17.922 40.8916 18.9022 39.475 19.895C38.0583 20.8879 36.8035 21.7 36.6865 21.7C36.5695 21.7 36.4375 21.7869 36.3928 21.8934C36.2816 22.1593 25.3231 29.6666 25.0464 29.6666C24.9239 29.6666 24.7875 29.7627 24.7428 29.88C24.6673 30.0797 23.0934 31.1855 17.2509 35.1437C8.26776 41.2298 0.799379 46.4893 0.946218 46.6259C1.10349 46.7723 27.39 64.6488 28.1359 65.1166C28.3235 65.2343 28.623 65.1661 28.864 64.9505C29.2344 64.6197 53.5329 47.8944 58.9406 44.2481C60.1731 43.4169 61.1835 42.6712 61.1857 42.5911C61.1879 42.5109 58.0222 40.2952 54.151 37.6674C50.2798 35.0397 47.1125 32.8443 47.1125 32.7891C47.1125 32.629 50.5723 30.1852 62.0827 22.2148L65.7671 19.6638L72.3396 24.2296C75.9545 26.7406 79.1022 28.9073 79.3345 29.0442C79.5667 29.1812 79.8114 29.3567 79.8781 29.4341C80.0133 29.591 81.6547 30.7324 85.2245 33.1521C88.2969 35.2343 96.9002 41.181 97.2252 41.4471C97.3623 41.5591 99.2052 42.8475 101.321 44.3101C103.436 45.7725 105.172 47.0813 105.179 47.2182C105.192 47.4871 105.002 47.6253 96.5672 53.4695C84.5355 61.8067 80.4099 64.6704 78.4219 66.0661C75.713 67.9676 76.3902 67.4966 70.0484 71.8892C66.9782 74.0158 62.7424 76.9531 60.6357 78.4162C58.5288 79.8793 56.6174 81.1886 56.3883 81.3255C56.159 81.4624 55.9167 81.6392 55.85 81.7184C55.7832 81.7975 53.9265 83.0968 51.724 84.6053C44.7963 89.3502 41.7729 91.493 41.7729 91.6573C41.7729 92.0153 54.6695 100.66 55.0056 100.528C55.5206 100.325 62.7521 95.302 62.848 95.0805C62.8927 94.9776 63.0198 94.8937 63.1308 94.8937C63.2419 94.8937 64.5814 94.0256 66.1076 92.9643C67.6337 91.903 69.0582 90.9228 69.2727 90.7859C69.4873 90.649 75.9205 86.2267 83.5687 80.9585C108.663 63.6741 117.016 57.9289 117.605 57.55C120.793 55.5006 133.68 46.429 133.6 46.2908C133.543 46.1918 130.906 44.3363 127.742 42.1676C121.737 38.0528 111.273 30.837 102.571 24.8107C99.7681 22.8693 95.1263 19.6697 92.2562 17.7007C89.3862 15.7317 87.0016 14.0333 86.9572 13.927C86.9125 13.8204 86.7793 13.7333 86.6606 13.7333C86.5422 13.7333 85.4318 13.0243 84.1932 12.1577C77.4685 7.45284 67.6985 0.787476 67.5267 0.787476C67.418 0.787476 61.9031 4.51264 55.2719 9.06534ZM129.358 4.71703C126.604 6.59518 124.184 8.24378 123.98 8.38071C121.253 10.2178 119.025 11.7533 118.822 11.9363C118.682 12.0616 118.464 12.2092 118.336 12.2642C117.864 12.4679 113.005 15.8562 112.927 16.0362C112.882 16.139 112.745 16.2229 112.621 16.2229C112.291 16.2229 108.032 19.2328 108.032 19.4658C108.032 19.5746 108.715 20.1193 109.549 20.6763C110.384 21.2332 113.383 23.311 116.214 25.2937L121.362 28.8989L127.985 24.3422L134.609 19.7857L134.672 10.5354C134.707 5.44798 134.653 1.28913 134.551 1.29386C134.449 1.29859 132.113 2.83889 129.358 4.71703ZM76.4496 40.5284C74.5308 41.8524 70.995 44.3004 68.5922 45.9687C66.1894 47.6367 60.7284 51.3997 56.4568 54.3307C52.1851 57.2617 48.6355 59.7172 48.5687 59.7874C48.4226 59.941 34.2562 69.7014 30.8581 71.9896C27.7922 74.0542 19.8462 79.5435 19.6865 79.7073C19.6197 79.7757 19.3809 79.9438 19.1554 80.0807C17.8513 80.8734 1.0166 92.553 1.00811 92.671C1.00253 92.7495 1.40736 93.0903 1.90807 93.4281C3.34466 94.3983 27.109 110.759 35.9547 116.868C40.3635 119.913 44.1587 122.516 44.3888 122.653C44.6187 122.79 44.8614 122.958 44.9281 123.026C45.0582 123.159 56.5728 131.09 63.073 135.522L67.0197 138.214L71.8105 134.951C74.4456 133.157 76.9015 131.473 77.268 131.21C77.6345 130.946 80.2558 129.155 83.093 127.228C85.9303 125.302 88.5588 123.504 88.9343 123.233C89.3098 122.961 91.9856 121.13 94.8806 119.163C97.7757 117.197 100.636 115.236 101.236 114.807C101.837 114.377 103.514 113.222 104.963 112.24C106.411 111.257 108.67 109.725 109.982 108.835C120.601 101.632 133.759 92.5334 133.759 92.3929C133.759 92.2986 130.018 89.6674 125.447 86.5457C120.875 83.424 115.523 79.768 113.554 78.4214C111.586 77.0748 109.875 75.9729 109.752 75.9729C109.629 75.9729 109.493 75.8823 109.448 75.7717C109.344 75.5126 106.714 73.7323 106.436 73.7323C106.32 73.7323 101.223 77.1771 95.109 81.3877C88.9955 85.5984 83.7284 89.2113 83.4044 89.4166C83.0804 89.622 80.7249 91.2435 78.1699 93.0198L73.5247 96.2498L74.156 96.7542C74.5031 97.0318 77.6156 99.1634 81.0725 101.491C84.5294 103.819 87.4149 105.853 87.4848 106.011C87.5586 106.178 85.8053 107.545 83.3204 109.258C80.9599 110.885 76.8219 113.752 74.125 115.629C71.4277 117.507 69.0992 119.043 68.9504 119.043C68.8014 119.043 67.6769 118.332 66.4515 117.463C65.2261 116.594 61.7114 114.148 58.6411 112.028C55.5709 109.907 51.639 107.18 49.9036 105.968C48.1683 104.756 44.6187 102.294 42.0156 100.497C33.4009 94.5512 29.5174 91.8584 29.4266 91.7693C29.3196 91.6637 29.8605 91.1335 30.4295 90.7859C30.6537 90.649 32.4512 89.4067 34.4239 88.0255C37.9687 85.5434 42.2406 82.5745 50.5104 76.8455C55.5888 73.3275 62.0068 68.8661 65.6797 66.3011C67.1481 65.2757 70.4792 62.9646 73.0823 61.1654C75.6853 59.3661 79.6825 56.594 81.9649 55.0049C84.2474 53.4158 87.5972 51.1012 89.409 49.8617C91.2211 48.6218 92.765 47.5055 92.8402 47.3805C92.9649 47.1734 90.6427 45.4628 83.8141 40.7319C82.4414 39.7808 81.0077 38.8044 80.6281 38.5619L79.9383 38.1215L76.4496 40.5284ZM12.0411 112.082C11.1067 112.755 10.233 113.399 10.0995 113.511C9.96599 113.623 9.69294 113.791 9.4927 113.883C9.29247 113.975 7.1627 115.438 4.75989 117.133L0.391143 120.215L0.344058 129.338C0.318331 134.356 0.347942 138.461 0.410075 138.461C0.606912 138.461 2.57188 137.1 2.65634 136.905C2.701 136.803 2.8425 136.719 2.97089 136.719C3.09952 136.719 4.2121 136.019 5.4436 135.163C6.6751 134.307 12.1334 130.588 17.5732 126.899C25.3503 121.625 27.3975 120.129 27.1548 119.897C26.9852 119.736 24.8258 118.206 22.3562 116.498C19.8867 114.79 17.0548 112.815 16.0633 112.11C15.0718 111.404 14.1435 110.834 14.0003 110.842C13.8571 110.849 12.9756 111.408 12.0411 112.082Z" fill="#E4E312"/>
</svg>
